<?xml version="1.0" standalone="no"?><!DOCTYPE svg PUBLIC "-//W3C//DTD SVG 1.1//EN" "http://www.w3.org/Graphics/SVG/1.1/DTD/svg11.dtd"><svg t="1599110120113" class="icon" viewBox="0 0 1024 1024" version="1.1" xmlns="http://www.w3.org/2000/svg" p-id="4004" xmlns:xlink="http://www.w3.org/1999/xlink" width="200" height="200"><defs><style type="text/css"></style></defs><path d="M64.4 101.5l127.2 827.9c1 6.4 6.5 11.2 13.1 11.2h435.6c15.9 0 28.7-9.9 28.7-25.7 0-15.9-12.9-25.7-28.7-25.7l-393.3 8c-6.5 0-12.1-4.8-13.1-11.2L125.4 152.9c-1.7-10.8 6.7-20.5 17.6-20.5h742.8c8.7 0 15.4 7.7 14.2 16.3l-67.8 363.1c-2.2 15.7 8.7 30.3 24.4 32.5 15.7 2.2 30.2-8.7 32.5-24.4l71.1-403.5c0-19.9-2.5-35.4-28.2-35.4H82c-10.9 0-19.2 9.7-17.6 20.5z" p-id="4005" fill="#dbdbdb"></path><path d="M706.1 577.3l-57.4-115.2c-1.2-2.4-4.1-3.3-6.4-2.2l-31.6 15.7c-2.4 1.2-3.3 4.1-2.2 6.4l34.2 68.7c2.3 4.5-0.9 9.9-6 10l-58.9 1.7 19.3-25.9-36-26.8-60.2 81 76.4 72.2 30.8-32.7-24.3-23 106.5-3.7c13.4-0.9 22-14.3 15.8-26.2zM327.6 609.5l128.6 7c2.7 0.1 4.9-1.9 5.1-4.5l1.9-35.2c0.1-2.7-1.9-4.9-4.5-5.1l-76.6-4.2c-5-0.2-8.2-5.7-5.7-10.2l27.6-52.1 13 29.6 41.1-18.1-40.7-92.3-100.5 30.8 13.2 42.9 32-9.8-49.4 94.5c-5.8 12.1 1.5 26.3 14.9 26.7zM489.9 275.6L422 385c-1.4 2.3-0.7 5.2 1.5 6.6l30 18.6c2.3 1.4 5.2 0.7 6.6-1.5l40.4-65.2c2.6-4.3 8.9-4.4 11.7-0.2l32.4 49.2-32.2-2.8-3.9 44.7 100.6 8.6 21.2-103-44-9-6.8 32.8-59.2-88.7c-7.7-10.7-23.6-11-30.4 0.5zM817.8 615.1l48.4-53c2.4-2.6 6.3-3.1 9.2-1.2l37.9 24.9c2.9 1.9 4 5.7 2.6 8.9l-29.3 64.6c-1.8 3.9-6.6 5.4-10.2 3.1l-57.9-35.3c-3.9-2.4-4.6-7.6-1.6-11l0.9-1z m-69.4 2.2c22.1-4.1 165.5 89 167.3 104 1.5 12.3-28.5 53-39.5 67.4-2.2 2.9-6.3 3.7-9.4 1.8L699.3 688.3c-3.3-2-4.4-6.2-2.5-9.6 8.8-15.9 33.8-58.1 51.6-61.4z m-53.1 95.1l159.9 98.8c2.9 1.8 4.1 5.3 3 8.5l-40.5 111.4c-1.6 4.4-6.9 6.1-10.7 3.5L580 781.1c-4.7-3.2-4-10.3 1.2-12.5 12.4-5.2 31.9-13.9 48.3-24.4 12.5-7.8 36.4-23.4 49.1-31.6 5.1-3.3 11.6-3.4 16.7-0.2z" p-id="4006" fill="#dbdbdb"></path></svg>