<?xml version="1.0" standalone="no"?><!DOCTYPE svg PUBLIC "-//W3C//DTD SVG 1.1//EN" "http://www.w3.org/Graphics/SVG/1.1/DTD/svg11.dtd"><svg t="1599105067225" class="icon" viewBox="0 0 1024 1024" version="1.1" xmlns="http://www.w3.org/2000/svg" p-id="1227" xmlns:xlink="http://www.w3.org/1999/xlink" width="200" height="200"><defs><style type="text/css"></style></defs><path d="M443.733333 780.8c-25.6 0-42.666667-17.066667-42.666666-42.666667v-256c0-25.6 17.066667-42.666667 42.666666-42.666666s42.666667 17.066667 42.666667 42.666666v256c0 21.333333-21.333333 42.666667-42.666667 42.666667zM580.266667 780.8c-25.6 0-42.666667-17.066667-42.666667-42.666667v-256c0-25.6 17.066667-42.666667 42.666667-42.666666s42.666667 17.066667 42.666666 42.666666v256c0 21.333333-17.066667 42.666667-42.666666 42.666667z" p-id="1228" fill="#dbdbdb"></path><path d="M810.666667 256h-128V170.666667c0-25.6-17.066667-42.666667-42.666667-42.666667H384c-25.6 0-42.666667 17.066667-42.666667 42.666667v85.333333H213.333333c-25.6 0-42.666667 17.066667-42.666666 42.666667s17.066667 42.666667 42.666666 42.666666h42.666667v554.666667c0 25.6 17.066667 42.666667 42.666667 42.666667h426.666666c25.6 0 42.666667-17.066667 42.666667-42.666667V341.333333h42.666667c25.6 0 42.666667-17.066667 42.666666-42.666666s-21.333333-42.666667-42.666666-42.666667z m-384-42.666667h170.666666v42.666667h-170.666666V213.333333z m256 640H341.333333V341.333333h341.333334v512z" p-id="1229" fill="#dbdbdb"></path></svg>