<?xml version="1.0" standalone="no"?><!DOCTYPE svg PUBLIC "-//W3C//DTD SVG 1.1//EN" "http://www.w3.org/Graphics/SVG/1.1/DTD/svg11.dtd"><svg t="1599110682296" class="icon" viewBox="0 0 1024 1024" version="1.1" xmlns="http://www.w3.org/2000/svg" p-id="32596" xmlns:xlink="http://www.w3.org/1999/xlink" width="200" height="200"><defs><style type="text/css"></style></defs><path d="M199.68 583.68c15.36-5.12 25.6-20.48 20.48-35.84-5.12-15.36-5.12-35.84-5.12-51.2 0-102.4 87.04-189.44 189.44-189.44H665.6v51.2c0 15.36 10.24 20.48 25.6 15.36l117.76-71.68c15.36-10.24 15.36-20.48 0-30.72l-117.76-76.8c-15.36-15.36-25.6-10.24-25.6 5.12v51.2H404.48c-66.56 0-128 25.6-174.08 71.68-46.08 46.08-71.68 107.52-71.68 174.08 0 20.48 5.12 46.08 10.24 66.56 5.12 10.24 15.36 20.48 25.6 20.48h5.12z m0 0M844.8 409.6c-5.12-10.24-15.36-20.48-25.6-20.48h-5.12c-15.36 5.12-25.6 20.48-20.48 35.84 5.12 15.36 5.12 35.84 5.12 51.2 0 107.52-87.04 194.56-194.56 194.56h-256v-51.2c0-15.36-10.24-20.48-25.6-15.36L204.8 680.96c-15.36 10.24-15.36 20.48 0 30.72l117.76 76.8c15.36 10.24 25.6 5.12 25.6-15.36v-51.2h261.12c66.56 0 128-25.6 174.08-71.68 46.08-46.08 71.68-107.52 71.68-174.08 0-20.48-5.12-46.08-10.24-66.56z m0 0" p-id="32597" fill="#dbdbdb"></path></svg>