<?xml version="1.0" standalone="no"?><!DOCTYPE svg PUBLIC "-//W3C//DTD SVG 1.1//EN" "http://www.w3.org/Graphics/SVG/1.1/DTD/svg11.dtd"><svg t="1599105535961" class="icon" viewBox="0 0 1024 1024" version="1.1" xmlns="http://www.w3.org/2000/svg" p-id="2232" xmlns:xlink="http://www.w3.org/1999/xlink" width="200" height="200"><defs><style type="text/css"></style></defs><path d="M337.770667 170.666667C245.632 170.666667 170.666667 245.632 170.666667 337.770667v348.437333C170.666667 778.346667 245.632 853.333333 337.770667 853.333333h348.437333C778.346667 853.333333 853.333333 778.346667 853.333333 686.208V337.770667C853.333333 245.632 778.346667 170.666667 686.208 170.666667H337.770667z m0 746.666666C210.325333 917.333333 106.666667 813.653333 106.666667 686.208V337.770667C106.666667 210.325333 210.325333 106.666667 337.770667 106.666667h348.437333C813.653333 106.666667 917.333333 210.325333 917.333333 337.770667v348.437333C917.333333 813.653333 813.653333 917.333333 686.208 917.333333H337.770667z" p-id="2233" fill="#e6e6e6"></path><path d="M512 298.666667a32 32 0 0 1 32 32v149.333333h149.333333a32 32 0 0 1 0 64h-149.354666l0.021333 149.333333a32 32 0 0 1-64 0l-0.021333-149.333333H330.666667a32 32 0 0 1 0-64h149.333333v-149.333333A32 32 0 0 1 512 298.666667z" p-id="2234" fill="#e6e6e6"></path></svg>