<?xml version="1.0" standalone="no"?><!DOCTYPE svg PUBLIC "-//W3C//DTD SVG 1.1//EN" "http://www.w3.org/Graphics/SVG/1.1/DTD/svg11.dtd"><svg t="1599105191742" class="icon" viewBox="0 0 1024 1024" version="1.1" xmlns="http://www.w3.org/2000/svg" p-id="1664" xmlns:xlink="http://www.w3.org/1999/xlink" width="200" height="200"><defs><style type="text/css"></style></defs><path d="M577 96c35.346 0 64 28.654 64 64v74.871c0 17.674 14.326 32 32 32a32 32 0 0 0 16-4.287l64.84-37.435c30.612-17.673 69.753-7.185 87.427 23.425l64 110.852c17.673 30.61 7.185 69.752-23.426 87.425L817 484.287c-15.306 8.837-20.55 28.408-11.714 43.713A32 32 0 0 0 817 539.713l64.84 37.436c30.612 17.673 41.1 56.815 23.427 87.425l-64 110.852c-17.674 30.61-56.815 41.098-87.426 23.425L689 761.415c-15.306-8.837-34.877-3.593-43.713 11.713a32 32 0 0 0-4.287 16V864c0 35.346-28.654 64-64 64H449c-35.346 0-64-28.654-64-64v-74.872c0-17.673-14.327-32-32-32a32 32 0 0 0-16 4.287l-64.84 37.436c-30.612 17.673-69.753 7.185-87.427-23.425l-64-110.852c-17.673-30.61-7.185-69.752 23.426-87.425L209 539.712c15.306-8.837 20.55-28.408 11.713-43.713a32 32 0 0 0-11.713-11.712l-64.84-37.436c-30.61-17.673-41.099-56.815-23.426-87.425l64-110.852c17.674-30.61 56.815-41.098 87.426-23.425L337 262.584c15.306 8.837 34.877 3.593 43.713-11.712a32 32 0 0 0 4.288-16V160c0-35.346 28.654-64 64-64h128z m-32 64h-64c-17.673 0-32 14.327-32 32v98.297c0 48.775-52.273 79.441-94.717 56.148l-1.284-0.722-85.127-49.149c-15.305-8.836-34.876-3.592-43.713 11.713l-32 55.426c-8.748 15.152-3.696 34.485 11.257 43.444l0.456 0.269 85.126 49.147c42.24 24.387 42.663 84.99 1.268 110.101l-1.267 0.75-85.127 49.15c-15.305 8.837-20.55 28.408-11.713 43.713l32 55.425c8.837 15.306 28.407 20.55 43.713 11.713l85.127-49.148c42.24-24.388 94.935 5.547 95.984 53.952l0.016 1.473V832c0.001 17.673 14.328 32 32.001 32h64c17.496 0 31.713-14.042 31.996-31.47L577 832v-98.298c0-48.774 52.271-79.442 94.716-56.148l1.283 0.722 85.13 49.15c15.151 8.748 34.484 3.696 43.444-11.257l0.268-0.456 32-55.426c8.836-15.305 3.592-34.876-11.713-43.713L737 567.426c-42.24-24.388-42.662-84.99-1.267-110.102l1.267-0.75 85.128-49.148c15.305-8.837 20.55-28.408 11.713-43.713l-32-55.426c-8.837-15.305-28.408-20.55-43.713-11.713l-85.129 49.149c-42.24 24.387-94.934-5.549-95.984-53.954l-0.016-1.472V192c0.001-17.496-14.04-31.713-31.47-31.996L545 160z m-33 225c70.14 0 127 56.86 127 127s-56.86 127-127 127-127-56.86-127-127 56.86-127 127-127z m0 64c-34.794 0-63 28.206-63 63s28.206 63 63 63 63-28.206 63-63-28.206-63-63-63z" p-id="1665" fill="#dbdbdb"></path></svg>