<?xml version="1.0" standalone="no"?><!DOCTYPE svg PUBLIC "-//W3C//DTD SVG 1.1//EN" "http://www.w3.org/Graphics/SVG/1.1/DTD/svg11.dtd"><svg t="1599104924386" class="icon" viewBox="0 0 1024 1024" version="1.1" xmlns="http://www.w3.org/2000/svg" p-id="1128" xmlns:xlink="http://www.w3.org/1999/xlink" width="200" height="200"><defs><style type="text/css"></style></defs><path d="M352 313.130667l-272.213333 39.509333-4.821334 0.981333a42.666667 42.666667 0 0 0-18.816 71.808l196.949334 192-46.506667 271.146667-0.554667 4.693333a42.666667 42.666667 0 0 0 62.464 40.277334l243.498667-128 243.498667 128 4.266666 2.005333a42.666667 42.666667 0 0 0 57.6-46.976l-46.506666-271.146667 196.992-192 3.370666-3.626666a42.666667 42.666667 0 0 0-27.008-69.12l-272.256-39.552-121.685333-246.698667a42.666667 42.666667 0 0 0-76.544 0L352 313.173333zM512 181.717333l93.44 189.312 2.56 4.522667a42.666667 42.666667 0 0 0 29.525333 18.773333l208.810667 30.336-151.082667 147.328-3.498666 3.84a42.666667 42.666667 0 0 0-8.789334 33.92l35.669334 208-186.794667-98.176-4.736-2.133333a42.666667 42.666667 0 0 0-34.986667 2.133333l-186.794666 98.176 35.712-208 0.554666-5.205333a42.666667 42.666667 0 0 0-12.842666-32.554667L177.621333 424.661333l208.853334-30.293333a42.666667 42.666667 0 0 0 32.128-23.338667L512 181.717333z" fill="#dbdbdb" p-id="1129"></path></svg>