<?xml version="1.0" standalone="no"?><!DOCTYPE svg PUBLIC "-//W3C//DTD SVG 1.1//EN" "http://www.w3.org/Graphics/SVG/1.1/DTD/svg11.dtd"><svg t="1599110409912" class="icon" viewBox="0 0 1024 1024" version="1.1" xmlns="http://www.w3.org/2000/svg" p-id="13433" xmlns:xlink="http://www.w3.org/1999/xlink" width="200" height="200"><defs><style type="text/css"></style></defs><path d="M256 682.666667c58.069333-252.928 341.333333-298.666667 341.333333-298.666667V298.666667l170.666667 169.898666L597.333333 640v-85.333333s-217.685333-4.437333-341.333333 128z m-170.666667-170.666667c0 235.264 191.402667 426.666667 426.666667 426.666667s426.666667-191.402667 426.666667-426.666667S747.264 85.333333 512 85.333333 85.333333 276.736 85.333333 512z m938.666667 0c0 282.752-229.248 512-512 512S0 794.752 0 512 229.248 0 512 0s512 229.248 512 512z" p-id="13434" fill="#dbdbdb"></path></svg>