<?xml version="1.0" standalone="no"?><!DOCTYPE svg PUBLIC "-//W3C//DTD SVG 1.1//EN" "http://www.w3.org/Graphics/SVG/1.1/DTD/svg11.dtd"><svg t="1599204781655" class="icon" viewBox="0 0 1024 1024" version="1.1" xmlns="http://www.w3.org/2000/svg" p-id="15715" xmlns:xlink="http://www.w3.org/1999/xlink" width="200" height="200"><defs><style type="text/css"></style></defs><path d="M825.134 246.17c-44.416-44.422-103.475-68.885-166.292-68.885-53.151 0-103.2 17.214-144.743 49.782l-1.838 1.444-1.838-1.45c-41.636-32.834-91.868-50.185-145.265-50.185-62.817 0-121.871 24.463-166.287 68.879-44.421 44.421-68.884 103.475-68.884 166.292 0 62.818 24.463 121.872 68.884 166.288l293.678 293.683a27.3 27.3 0 0 0 19.185 7.967h0.097a26.962 26.962 0 0 0 19.18-7.941l294.113-293.31c44.35-44.34 68.772-103.393 68.777-166.282 0-62.884-24.423-121.938-68.767-166.282zM443.843 596.75a24.064 24.064 0 0 1-17.137 7.102 24.064 24.064 0 0 1-17.137-7.102L287.048 474.24c-9.273-9.518-9.073-24.893 0.496-34.222a24.115 24.115 0 0 1 16.922-6.881c6.354 0 12.36 2.442 16.911 6.876l122.466 122.46a24.269 24.269 0 0 1 0 34.278z" fill="#d81e06" p-id="15716"></path></svg>