<?xml version="1.0" standalone="no"?><!DOCTYPE svg PUBLIC "-//W3C//DTD SVG 1.1//EN" "http://www.w3.org/Graphics/SVG/1.1/DTD/svg11.dtd"><svg t="1599109124722" class="icon" viewBox="0 0 1024 1024" version="1.1" xmlns="http://www.w3.org/2000/svg" p-id="2497" xmlns:xlink="http://www.w3.org/1999/xlink" width="200" height="200"><defs><style type="text/css"></style></defs><path d="M260.266667 673.185185H148.859259c-11.757037 0-21.333333-9.576296-21.333333-21.333333v-279.703704c0-11.757037 9.576296-21.333333 21.333333-21.333333h111.407408v322.37037zM260.266667 350.814815l302.459259-218.168889c16.213333-11.757037 38.874074-0.094815 38.874074 19.911111V871.348148c0 20.005926-22.660741 31.668148-38.874074 19.911111l-302.459259-218.074074V350.814815zM766.293333 767.525926l-25.315555-34.322963c70.068148-51.674074 111.881481-134.447407 111.881481-221.392593 0-86.85037-41.718519-169.528889-111.597037-221.202963l25.410371-34.322963c39.063704 28.918519 71.49037 67.034074 93.771851 110.174815 23.04 44.562963 35.176296 94.90963 35.176297 145.351111 0 50.536296-12.136296 100.882963-35.271111 145.540741-22.376296 43.140741-54.802963 81.256296-94.056297 110.174815z" p-id="2498" fill="#ffffff"></path><path d="M707.413333 710.257778l-23.324444-35.745185c55.182222-36.124444 88.177778-96.995556 88.177778-162.797037 0-65.706667-32.900741-126.577778-87.893334-162.702223l23.41926-35.65037c67.128889 43.994074 107.140741 118.139259 107.14074 198.352593 0 80.402963-40.201481 154.548148-107.52 198.542222z" p-id="2499" fill="#ffffff"></path></svg>