<?xml version="1.0" standalone="no"?><!DOCTYPE svg PUBLIC "-//W3C//DTD SVG 1.1//EN" "http://www.w3.org/Graphics/SVG/1.1/DTD/svg11.dtd"><svg t="1599107697586" class="icon" viewBox="0 0 1024 1024" version="1.1" xmlns="http://www.w3.org/2000/svg" p-id="2841" xmlns:xlink="http://www.w3.org/1999/xlink" width="200" height="200"><defs><style type="text/css"></style></defs><path d="M904 1024H120c-66.168 0-120-53.832-120-120V120C0 53.832 53.832 0 120 0h784c66.168 0 120 53.832 120 120v784c0 66.168-53.832 120-120 120zM120 4C56.038 4 4 56.038 4 120v784c0 63.962 52.038 116 116 116h784c63.962 0 116-52.038 116-116V120c0-63.962-52.038-116-116-116H120z" fill="#dbdbdb" p-id="2842"></path><path d="M512 832c-176.448 0-320-143.55-320-320 0-176.448 143.552-320 320-320 176.45 0 320 143.552 320 320 0 176.45-143.55 320-320 320z m0-580c-143.364 0-260 116.636-260 260 0 143.366 116.636 260 260 260 143.368 0 260-116.634 260-260 0-143.364-116.632-260-260-260z" fill="#dbdbdb" p-id="2843"></path><path d="M382.364 481.246h258.492v60H382.364z" fill="#dbdbdb" p-id="2844"></path><path d="M481.608 371.508h60V630h-60z" fill="#dbdbdb" p-id="2845"></path></svg>